<svg xmlns="http://www.w3.org/2000/svg" width="1100" height="1100" viewBox="0 0 1100 1100"><rect x="0" y="0" width="1100.0" height="1100.0" fill="#f8fafc"/><line x1="550.000" y1="550.000" x2="556.324" y2="550.000" stroke="#6b7280" stroke-width="1.200" stroke-dasharray="5 4"/><circle cx="550.000" cy="550.000" r="421.569" stroke="#64748b" fill="none" stroke-width="1.500" stroke-dasharray="6 4"/><circle cx="556.324" cy="550.000" r="406.814" stroke="#0f766e" fill="none" stroke-width="2.000"/><circle cx="971.569" cy="550.000" r="8.431" stroke="#1d4ed8" fill="#bfdbfe" stroke-width="1.100"/><circle cx="970.495" cy="519.926" r="8.431" stroke="#1d4ed8" fill="#bfdbfe" stroke-width="1.100"/><circle cx="967.278" cy="490.005" r="8.431" stroke="#1d4ed8" fill="#bfdbfe" stroke-width="1.100"/><circle cx="961.934" cy="460.389" r="8.431" stroke="#1d4ed8" fill="#bfdbfe" stroke-width="1.100"/><circle cx="954.492" cy="431.230" r="8.431" stroke="#1d4ed8" fill="#bfdbfe" stroke-width="1.100"/><circle cx="944.989" cy="402.677" r="8.431" stroke="#1d4ed8" fill="#bfdbfe" stroke-width="1.100"/><circle cx="933.472" cy="374.874" r="8.431" stroke="#1d4ed8" fill="#bfdbfe" stroke-width="1.100"/><circle cx="920.002" cy="347.964" r="8.431" stroke="#1d4ed8" fill="#bfdbfe" stroke-width="1.100"/><circle cx="904.646" cy="322.083" r="8.431" stroke="#1d4ed8" fill="#bfdbfe" stroke-width="1.100"/><circle cx="887.483" cy="297.363" r="8.431" stroke="#1d4ed8" fill="#bfdbfe" stroke-width="1.100"/><circle cx="868.600" cy="273.931" r="8.431" stroke="#1d4ed8" fill="#bfdbfe" stroke-width="1.100"/><circle cx="848.094" cy="251.906" r="8.431" stroke="#1d4ed8" fill="#bfdbfe" stroke-width="1.100"/><circle cx="826.069" cy="231.400" r="8.431" stroke="#1d4ed8" fill="#bfdbfe" stroke-width="1.100"/><circle cx="802.637" cy="212.517" r="8.431" stroke="#1d4ed8" fill="#bfdbfe" stroke-width="1.100"/><circle cx="777.917" cy="195.354" r="8.431" stroke="#1d4ed8" fill="#bfdbfe" stroke-width="1.100"/><circle cx="752.036" cy="179.998" r="8.431" stroke="#1d4ed8" fill="#bfdbfe" stroke-width="1.100"/><circle cx="725.126" cy="166.528" r="8.431" stroke="#1d4ed8" fill="#bfdbfe" stroke-width="1.100"/><circle cx="697.323" cy="155.011" r="8.431" stroke="#1d4ed8" fill="#bfdbfe" stroke-width="1.100"/><circle cx="668.770" cy="145.508" r="8.431" stroke="#1d4ed8" fill="#bfdbfe" stroke-width="1.100"/><circle cx="639.611" cy="138.066" r="8.431" stroke="#1d4ed8" fill="#bfdbfe" stroke-width="1.100"/><circle cx="609.995" cy="132.722" r="8.431" stroke="#1d4ed8" fill="#bfdbfe" stroke-width="1.100"/><circle cx="580.074" cy="129.505" r="8.431" stroke="#1d4ed8" fill="#bfdbfe" stroke-width="1.100"/><circle cx="550.000" cy="128.431" r="8.431" stroke="#1d4ed8" fill="#bfdbfe" stroke-width="1.100"/><circle cx="519.926" cy="129.505" r="8.431" stroke="#1d4ed8" fill="#bfdbfe" stroke-width="1.100"/><circle cx="490.005" cy="132.722" r="8.431" stroke="#1d4ed8" fill="#bfdbfe" stroke-width="1.100"/><circle cx="460.389" cy="138.066" r="8.431" stroke="#1d4ed8" fill="#bfdbfe" stroke-width="1.100"/><circle cx="431.230" cy="145.508" r="8.431" stroke="#1d4ed8" fill="#bfdbfe" stroke-width="1.100"/><circle cx="402.677" cy="155.011" r="8.431" stroke="#1d4ed8" fill="#bfdbfe" stroke-width="1.100"/><circle cx="374.874" cy="166.528" r="8.431" stroke="#1d4ed8" fill="#bfdbfe" stroke-width="1.100"/><circle cx="347.964" cy="179.998" r="8.431" stroke="#1d4ed8" fill="#bfdbfe" stroke-width="1.100"/><circle cx="322.083" cy="195.354" r="8.431" stroke="#1d4ed8" fill="#bfdbfe" stroke-width="1.100"/><circle cx="297.363" cy="212.517" r="8.431" stroke="#1d4ed8" fill="#bfdbfe" stroke-width="1.100"/><circle cx="273.931" cy="231.400" r="8.431" stroke="#1d4ed8" fill="#bfdbfe" stroke-width="1.100"/><circle cx="251.906" cy="251.906" r="8.431" stroke="#1d4ed8" fill="#bfdbfe" stroke-width="1.100"/><circle cx="231.400" cy="273.931" r="8.431" stroke="#1d4ed8" fill="#bfdbfe" stroke-width="1.100"/><circle cx="212.517" cy="297.363" r="8.431" stroke="#1d4ed8" fill="#bfdbfe" stroke-width="1.100"/><circle cx="195.354" cy="322.083" r="8.431" stroke="#1d4ed8" fill="#bfdbfe" stroke-width="1.100"/><circle cx="179.998" cy="347.964" r="8.431" stroke="#1d4ed8" fill="#bfdbfe" stroke-width="1.100"/><circle cx="166.528" cy="374.874" r="8.431" stroke="#1d4ed8" fill="#bfdbfe" stroke-width="1.100"/><circle cx="155.011" cy="402.677" r="8.431" stroke="#1d4ed8" fill="#bfdbfe" stroke-width="1.100"/><circle cx="145.508" cy="431.230" r="8.431" stroke="#1d4ed8" fill="#bfdbfe" stroke-width="1.100"/><circle cx="138.066" cy="460.389" r="8.431" stroke="#1d4ed8" fill="#bfdbfe" stroke-width="1.100"/><circle cx="132.722" cy="490.005" r="8.431" stroke="#1d4ed8" fill="#bfdbfe" stroke-width="1.100"/><circle cx="129.505" cy="519.926" r="8.431" stroke="#1d4ed8" fill="#bfdbfe" stroke-width="1.100"/><circle cx="128.431" cy="550.000" r="8.431" stroke="#1d4ed8" fill="#bfdbfe" stroke-width="1.100"/><circle cx="129.505" cy="580.074" r="8.431" stroke="#1d4ed8" fill="#bfdbfe" stroke-width="1.100"/><circle cx="132.722" cy="609.995" r="8.431" stroke="#1d4ed8" fill="#bfdbfe" stroke-width="1.100"/><circle cx="138.066" cy="639.611" r="8.431" stroke="#1d4ed8" fill="#bfdbfe" stroke-width="1.100"/><circle cx="145.508" cy="668.770" r="8.431" stroke="#1d4ed8" fill="#bfdbfe" stroke-width="1.100"/><circle cx="155.011" cy="697.323" r="8.431" stroke="#1d4ed8" fill="#bfdbfe" stroke-width="1.100"/><circle cx="166.528" cy="725.126" r="8.431" stroke="#1d4ed8" fill="#bfdbfe" stroke-width="1.100"/><circle cx="179.998" cy="752.036" r="8.431" stroke="#1d4ed8" fill="#bfdbfe" stroke-width="1.100"/><circle cx="195.354" cy="777.917" r="8.431" stroke="#1d4ed8" fill="#bfdbfe" stroke-width="1.100"/><circle cx="212.517" cy="802.637" r="8.431" stroke="#1d4ed8" fill="#bfdbfe" stroke-width="1.100"/><circle cx="231.400" cy="826.069" r="8.431" stroke="#1d4ed8" fill="#bfdbfe" stroke-width="1.100"/><circle cx="251.906" cy="848.094" r="8.431" stroke="#1d4ed8" fill="#bfdbfe" stroke-width="1.100"/><circle cx="273.931" cy="868.600" r="8.431" stroke="#1d4ed8" fill="#bfdbfe" stroke-width="1.100"/><circle cx="297.363" cy="887.483" r="8.431" stroke="#1d4ed8" fill="#bfdbfe" stroke-width="1.100"/><circle cx="322.083" cy="904.646" r="8.431" stroke="#1d4ed8" fill="#bfdbfe" stroke-width="1.100"/><circle cx="347.964" cy="920.002" r="8.431" stroke="#1d4ed8" fill="#bfdbfe" stroke-width="1.100"/><circle cx="374.874" cy="933.472" r="8.431" stroke="#1d4ed8" fill="#bfdbfe" stroke-width="1.100"/><circle cx="402.677" cy="944.989" r="8.431" stroke="#1d4ed8" fill="#bfdbfe" stroke-width="1.100"/><circle cx="431.230" cy="954.492" r="8.431" stroke="#1d4ed8" fill="#bfdbfe" stroke-width="1.100"/><circle cx="460.389" cy="961.934" r="8.431" stroke="#1d4ed8" fill="#bfdbfe" stroke-width="1.100"/><circle cx="490.005" cy="967.278" r="8.431" stroke="#1d4ed8" fill="#bfdbfe" stroke-width="1.100"/><circle cx="519.926" cy="970.495" r="8.431" stroke="#1d4ed8" fill="#bfdbfe" stroke-width="1.100"/><circle cx="550.000" cy="971.569" r="8.431" stroke="#1d4ed8" fill="#bfdbfe" stroke-width="1.100"/><circle cx="580.074" cy="970.495" r="8.431" stroke="#1d4ed8" fill="#bfdbfe" stroke-width="1.100"/><circle cx="609.995" cy="967.278" r="8.431" stroke="#1d4ed8" fill="#bfdbfe" stroke-width="1.100"/><circle cx="639.611" cy="961.934" r="8.431" stroke="#1d4ed8" fill="#bfdbfe" stroke-width="1.100"/><circle cx="668.770" cy="954.492" r="8.431" stroke="#1d4ed8" fill="#bfdbfe" stroke-width="1.100"/><circle cx="697.323" cy="944.989" r="8.431" stroke="#1d4ed8" fill="#bfdbfe" stroke-width="1.100"/><circle cx="725.126" cy="933.472" r="8.431" stroke="#1d4ed8" fill="#bfdbfe" stroke-width="1.100"/><circle cx="752.036" cy="920.002" r="8.431" stroke="#1d4ed8" fill="#bfdbfe" stroke-width="1.100"/><circle cx="777.917" cy="904.646" r="8.431" stroke="#1d4ed8" fill="#bfdbfe" stroke-width="1.100"/><circle cx="802.637" cy="887.483" r="8.431" stroke="#1d4ed8" fill="#bfdbfe" stroke-width="1.100"/><circle cx="826.069" cy="868.600" r="8.431" stroke="#1d4ed8" fill="#bfdbfe" stroke-width="1.100"/><circle cx="848.094" cy="848.094" r="8.431" stroke="#1d4ed8" fill="#bfdbfe" stroke-width="1.100"/><circle cx="868.600" cy="826.069" r="8.431" stroke="#1d4ed8" fill="#bfdbfe" stroke-width="1.100"/><circle cx="887.483" cy="802.637" r="8.431" stroke="#1d4ed8" fill="#bfdbfe" stroke-width="1.100"/><circle cx="904.646" cy="777.917" r="8.431" stroke="#1d4ed8" fill="#bfdbfe" stroke-width="1.100"/><circle cx="920.002" cy="752.036" r="8.431" stroke="#1d4ed8" fill="#bfdbfe" stroke-width="1.100"/><circle cx="933.472" cy="725.126" r="8.431" stroke="#1d4ed8" fill="#bfdbfe" stroke-width="1.100"/><circle cx="944.989" cy="697.323" r="8.431" stroke="#1d4ed8" fill="#bfdbfe" stroke-width="1.100"/><circle cx="954.492" cy="668.770" r="8.431" stroke="#1d4ed8" fill="#bfdbfe" stroke-width="1.100"/><circle cx="961.934" cy="639.611" r="8.431" stroke="#1d4ed8" fill="#bfdbfe" stroke-width="1.100"/><circle cx="967.278" cy="609.995" r="8.431" stroke="#1d4ed8" fill="#bfdbfe" stroke-width="1.100"/><circle cx="970.495" cy="580.074" r="8.431" stroke="#1d4ed8" fill="#bfdbfe" stroke-width="1.100"/><circle cx="802.941" cy="550.000" r="78.696" stroke="#b45309" fill="#fde68a" stroke-width="1.200"/><circle cx="809.265" cy="550.000" r="86.337" stroke="#7c3aed" fill="none" stroke-width="1.200" stroke-dasharray="4 3"/><circle cx="550.000" cy="297.059" r="78.696" stroke="#b45309" fill="#fde68a" stroke-width="1.200"/><circle cx="556.324" cy="297.059" r="86.337" stroke="#7c3aed" fill="none" stroke-width="1.200" stroke-dasharray="4 3"/><circle cx="297.059" cy="550.000" r="78.696" stroke="#b45309" fill="#fde68a" stroke-width="1.200"/><circle cx="303.382" cy="550.000" r="86.337" stroke="#7c3aed" fill="none" stroke-width="1.200" stroke-dasharray="4 3"/><circle cx="550.000" cy="802.941" r="78.696" stroke="#b45309" fill="#fde68a" stroke-width="1.200"/><circle cx="556.324" cy="802.941" r="86.337" stroke="#7c3aed" fill="none" stroke-width="1.200" stroke-dasharray="4 3"/><circle cx="550.000" cy="550.000" r="2.500" stroke="#111827" fill="#111827" stroke-width="1.500"/><circle cx="556.324" cy="550.000" r="2.500" stroke="#0f766e" fill="#0f766e" stroke-width="1.500"/><text x="24.000" y="32.000" fill="#111827" font-size="22" font-family="Segoe UI, Arial, sans-serif">Cycloidal Geometry Preview</text><text x="24.000" y="54.000" fill="#1f2937" font-size="14" font-family="Segoe UI, Arial, sans-serif">Stage ratio: 87:1</text><text x="24.000" y="76.000" fill="#1f2937" font-size="14" font-family="Segoe UI, Arial, sans-serif">Ring pitch dia: 160.000 mm</text><text x="24.000" y="98.000" fill="#1f2937" font-size="14" font-family="Segoe UI, Arial, sans-serif">Ring roller dia: 3.200 mm</text><text x="24.000" y="120.000" fill="#1f2937" font-size="14" font-family="Segoe UI, Arial, sans-serif">Eccentricity: 1.200 mm</text><text x="24.000" y="142.000" fill="#1f2937" font-size="14" font-family="Segoe UI, Arial, sans-serif">Output roller dia: 29.868 mm</text><text x="24.000" y="164.000" fill="#1f2937" font-size="14" font-family="Segoe UI, Arial, sans-serif">Output hole dia: 32.768 mm</text><text x="24.000" y="186.000" fill="#1f2937" font-size="14" font-family="Segoe UI, Arial, sans-serif">Min static SF: 1.135</text><text x="24.000" y="208.000" fill="#1f2937" font-size="14" font-family="Segoe UI, Arial, sans-serif">Min fatigue SF: 1.221</text><text x="24.000" y="960.000" fill="#111827" font-size="15" font-family="Segoe UI, Arial, sans-serif">Legend:</text><text x="24.000" y="982.000" fill="#1f2937" font-size="14" font-family="Segoe UI, Arial, sans-serif">Blue = ring rollers, Amber = output rollers, Purple dashed = output holes</text><text x="24.000" y="1004.000" fill="#1f2937" font-size="14" font-family="Segoe UI, Arial, sans-serif">Teal = disc OD (eccentric center), Gray dashed = ring pitch circle</text></svg>